<?xml version="1.0" standalone="yes"?>

<svg version="1.1" viewBox="0.0 0.0 716.7769028871392 382.56692913385825" fill="none" stroke="none" stroke-linecap="square" stroke-miterlimit="10" xmlns="http://www.w3.org/2000/svg" xmlns:xlink="http://www.w3.org/1999/xlink"><clipPath id="p.0"><path d="m0 0l716.7769 0l0 382.56693l-716.7769 0l0 -382.56693z" clip-rule="nonzero"></path></clipPath><g clip-path="url(#p.0)"><path fill="#000000" fill-opacity="0.0" d="m0 0l716.7769 0l0 382.56693l-716.7769 0z" fill-rule="nonzero"></path><path fill="#cfe2f3" d="m299.9134 138.26247l0 0c0 -12.924332 10.477234 -23.401573 23.40158 -23.401573l0 0c6.206482 0 12.158752 2.4655151 16.547394 6.854164c4.3886414 4.3886414 6.8541565 10.340927 6.8541565 16.54741l0 0c0 12.924332 -10.477234 23.40158 -23.40155 23.40158l0 0c-12.924347 0 -23.40158 -10.477249 -23.40158 -23.40158z" fill-rule="nonzero"></path><path stroke="#000000" stroke-width="1.0" stroke-linejoin="round" stroke-linecap="butt" d="m299.9134 138.26247l0 0c0 -12.924332 10.477234 -23.401573 23.40158 -23.401573l0 0c6.206482 0 12.158752 2.4655151 16.547394 6.854164c4.3886414 4.3886414 6.8541565 10.340927 6.8541565 16.54741l0 0c0 12.924332 -10.477234 23.40158 -23.40155 23.40158l0 0c-12.924347 0 -23.40158 -10.477249 -23.40158 -23.40158z" fill-rule="nonzero"></path><path fill="#000000" d="m321.52005 137.52121l-1.765625 -1.375q0.84375 -0.953125 1.75 -1.8125q0.359375 -0.359375 0.453125 -0.453125q-0.28125 -0.046875 -1.671875 -0.375q-1.0 -0.25 -1.3125 -0.375l0.6875 -2.0625q1.546875 0.625 2.75 1.375q-0.28125 -1.90625 -0.28125 -3.109375l2.078125 0q0 0.84375 -0.3125 3.140625q0.234375 -0.09375 1.015625 -0.46875q1.046875 -0.46875 1.9375 -0.8125l0.625 2.125q-1.296875 0.28125 -3.015625 0.5625l1.40625 1.59375q0.421875 0.46875 0.671875 0.78125l-1.796875 1.1875l-1.578125 -2.625q-0.71875 1.265625 -1.640625 2.703125z" fill-rule="nonzero"></path><path fill="#000000" fill-opacity="0.0" d="m110.608925 75.8665l132.59842 0" fill-rule="nonzero"></path><path stroke="#000000" stroke-width="1.0" stroke-linejoin="round" stroke-linecap="butt" d="m110.608925 75.8665l132.59842 0" fill-rule="nonzero"></path><path fill="#000000" fill-opacity="0.0" d="m243.18898 75.86877l56.72441 62.3937" fill-rule="nonzero"></path><path stroke="#000000" stroke-width="1.0" stroke-linejoin="round" stroke-linecap="butt" d="m243.18898 75.86877l56.72441 62.3937" fill-rule="nonzero"></path><path fill="#000000" fill-opacity="0.0" d="m110.608925 200.6588l132.59842 0" fill-rule="nonzero"></path><path stroke="#000000" stroke-width="1.0" stroke-linejoin="round" stroke-linecap="butt" d="m110.608925 200.6588l132.59842 0" fill-rule="nonzero"></path><path fill="#000000" fill-opacity="0.0" d="m243.18898 200.65652l56.72441 -62.393692" fill-rule="nonzero"></path><path stroke="#000000" stroke-width="1.0" stroke-linejoin="round" stroke-linecap="butt" d="m243.18898 200.65652l56.72441 -62.393692" fill-rule="nonzero"></path><path fill="#cfe2f3" d="m464.8084 212.4042l0 0c0 -12.924332 10.477234 -23.40158 23.40155 -23.40158l0 0c6.206482 0 12.158783 2.4655151 16.547424 6.8541565c4.3886414 4.3886566 6.8541565 10.340942 6.8541565 16.547424l0 0c0 12.924332 -10.477234 23.401566 -23.40158 23.401566l0 0c-12.924316 0 -23.40155 -10.477234 -23.40155 -23.401566z" fill-rule="nonzero"></path><path stroke="#000000" stroke-width="1.0" stroke-linejoin="round" stroke-linecap="butt" d="m464.8084 212.4042l0 0c0 -12.924332 10.477234 -23.40158 23.40155 -23.40158l0 0c6.206482 0 12.158783 2.4655151 16.547424 6.8541565c4.3886414 4.3886566 6.8541565 10.340942 6.8541565 16.547424l0 0c0 12.924332 -10.477234 23.401566 -23.40158 23.401566l0 0c-12.924316 0 -23.40155 -10.477234 -23.40155 -23.401566z" fill-rule="nonzero"></path><path fill="#000000" d="m486.70215 218.47545l0 -4.46875l-4.5 0l0 -3.078125l4.5 0l0 -4.46875l3.0 0l0 4.46875l4.515625 0l0 3.078125l-4.515625 0l0 4.46875l-3.0 0z" fill-rule="nonzero"></path><path fill="#000000" fill-opacity="0.0" d="m113.25957 331.99976l302.04724 0" fill-rule="nonzero"></path><path stroke="#000000" stroke-width="1.0" stroke-linejoin="round" stroke-linecap="butt" d="m113.25957 331.99976l302.04724 0" fill-rule="nonzero"></path><path fill="#000000" fill-opacity="0.0" d="m414.79266 332.53018l50.015747 -120.12598" fill-rule="nonzero"></path><path stroke="#000000" stroke-width="1.0" stroke-linejoin="round" stroke-linecap="butt" d="m414.79266 332.53018l50.015747 -120.12598" fill-rule="nonzero"></path><path fill="#000000" fill-opacity="0.0" d="m346.71652 138.26247l75.433075 0" fill-rule="nonzero"></path><path stroke="#000000" stroke-width="1.0" stroke-linejoin="round" stroke-linecap="butt" d="m346.71652 138.26247l75.433075 0" fill-rule="nonzero"></path><path fill="#000000" fill-opacity="0.0" d="m421.97375 138.23097l42.834656 74.17323" fill-rule="nonzero"></path><path stroke="#000000" stroke-width="1.0" stroke-linejoin="round" stroke-linecap="butt" d="m421.97375 138.23097l42.834656 74.17323" fill-rule="nonzero"></path><path fill="#000000" fill-opacity="0.0" d="m511.04724 212.4042l39.968506 0" fill-rule="nonzero"></path><path stroke="#000000" stroke-width="1.0" stroke-linejoin="round" stroke-linecap="butt" d="m511.04724 212.4042l39.968506 0" fill-rule="nonzero"></path><path fill="#000000" fill-opacity="0.0" d="m76.13648 57.3937l30.803154 0l0 36.944885l-30.803154 0z" fill-rule="nonzero"></path><path fill="#000000" d="m85.21461 84.3137l5.265625 -7.09375l-4.640625 -6.5l2.140625 0l2.46875 3.484375q0.78125 1.078125 1.09375 1.671875q0.453125 -0.75 1.078125 -1.546875l2.734375 -3.609375l1.96875 0l-4.78125 6.40625l5.140625 7.1875l-2.21875 0l-3.421875 -4.859375q-0.296875 -0.40625 -0.59375 -0.90625q-0.453125 0.75 -0.65625 1.03125l-3.40625 4.734375l-2.171875 0z" fill-rule="nonzero"></path><path fill="#000000" fill-opacity="0.0" d="m79.80577 182.18636l30.803154 0l0 36.944885l-30.803154 0z" fill-rule="nonzero"></path><path fill="#000000" d="m92.64952 209.10635l-3.609375 -13.59375l1.84375 0l2.0625 8.90625q0.34375 1.40625 0.578125 2.78125q0.515625 -2.171875 0.609375 -2.515625l2.59375 -9.171875l2.171875 0l1.953125 6.875q0.734375 2.5625 1.046875 4.8125q0.265625 -1.28125 0.6875 -2.953125l2.125 -8.734375l1.8125 0l-3.734375 13.59375l-1.734375 0l-2.859375 -10.359375q-0.359375 -1.296875 -0.421875 -1.59375q-0.21875 0.9375 -0.40625 1.59375l-2.890625 10.359375l-1.828125 0z" fill-rule="nonzero"></path><path fill="#000000" fill-opacity="0.0" d="m79.80577 313.52756l30.803154 0l0 36.944885l-30.803154 0z" fill-rule="nonzero"></path><path fill="#000000" d="m91.602646 340.44757l-1.546875 0l0 -13.59375l1.65625 0l0 4.84375q1.0625 -1.328125 2.703125 -1.328125q0.90625 0 1.71875 0.375q0.8125 0.359375 1.328125 1.03125q0.53125 0.65625 0.828125 1.59375q0.296875 0.9375 0.296875 2.0q0 2.53125 -1.25 3.921875q-1.25 1.375 -3.0 1.375q-1.75 0 -2.734375 -1.453125l0 1.234375zm-0.015625 -5.0q0 1.765625 0.46875 2.5625q0.796875 1.28125 2.140625 1.28125q1.09375 0 1.890625 -0.9375q0.796875 -0.953125 0.796875 -2.84375q0 -1.921875 -0.765625 -2.84375q-0.765625 -0.921875 -1.84375 -0.921875q-1.09375 0 -1.890625 0.953125q-0.796875 0.953125 -0.796875 2.75z" fill-rule="nonzero"></path><path fill="#cfe2f3" d="m551.01575 212.4042l0 0c0 -12.924332 13.551331 -23.40158 30.2677 -23.40158l0 0c16.71643 0 30.267761 10.477249 30.267761 23.40158l0 0c0 12.924332 -13.551331 23.401566 -30.267761 23.401566l0 0c-16.71637 0 -30.2677 -10.477234 -30.2677 -23.401566z" fill-rule="nonzero"></path><path stroke="#000000" stroke-width="1.0" stroke-linejoin="round" stroke-linecap="butt" d="m551.01575 212.4042l0 0c0 -12.924332 13.551331 -23.40158 30.2677 -23.40158l0 0c16.71643 0 30.267761 10.477249 30.267761 23.40158l0 0c0 12.924332 -13.551331 23.401566 -30.267761 23.401566l0 0c-16.71637 0 -30.2677 -10.477234 -30.2677 -23.401566z" fill-rule="nonzero"></path><path fill="#000000" d="m571.4189 216.1442l0 -7.875l1.5 0l0 7.875l-1.5 0zm2.6012573 -2.9375q0 -0.75 0.375 -1.453125q0.375 -0.703125 1.046875 -1.0625q0.6875 -0.375 1.515625 -0.375q1.296875 0 2.125 0.84375q0.828125 0.828125 0.828125 2.109375q0 1.296875 -0.84375 2.15625q-0.828125 0.84375 -2.09375 0.84375q-0.78125 0 -1.5 -0.34375q-0.703125 -0.359375 -1.078125 -1.046875q-0.375 -0.6875 -0.375 -1.671875zm1.546875 0.078125q0 0.859375 0.40625 1.3125q0.40625 0.453125 1.0 0.453125q0.578125 0 0.984375 -0.453125q0.40625 -0.453125 0.40625 -1.3125q0 -0.84375 -0.40625 -1.296875q-0.40625 -0.453125 -0.984375 -0.453125q-0.59375 0 -1.0 0.453125q-0.40625 0.453125 -0.40625 1.296875zm4.7905273 1.234375l1.5 -0.234375q0.109375 0.4375 0.390625 0.671875q0.296875 0.21875 0.828125 0.21875q0.59375 0 0.890625 -0.203125q0.203125 -0.15625 0.203125 -0.40625q0 -0.171875 -0.109375 -0.28125q-0.125 -0.109375 -0.515625 -0.203125q-1.8125 -0.40625 -2.3125 -0.734375q-0.671875 -0.46875 -0.671875 -1.28125q0 -0.75 0.578125 -1.25q0.59375 -0.5 1.828125 -0.5q1.171875 0 1.734375 0.375q0.5625 0.375 0.78125 1.125l-1.421875 0.265625q-0.09375 -0.328125 -0.34375 -0.5q-0.25 -0.1875 -0.734375 -0.1875q-0.59375 0 -0.84375 0.171875q-0.171875 0.109375 -0.171875 0.296875q0 0.171875 0.140625 0.28125q0.203125 0.15625 1.40625 0.4375q1.21875 0.265625 1.6875 0.65625q0.484375 0.40625 0.484375 1.125q0 0.78125 -0.65625 1.34375q-0.65625 0.5625 -1.953125 0.5625q-1.15625 0 -1.84375 -0.46875q-0.671875 -0.46875 -0.875 -1.28125zm5.9265137 0l1.5 -0.234375q0.109375 0.4375 0.390625 0.671875q0.296875 0.21875 0.828125 0.21875q0.59375 0 0.890625 -0.203125q0.203125 -0.15625 0.203125 -0.40625q0 -0.171875 -0.109375 -0.28125q-0.125 -0.109375 -0.515625 -0.203125q-1.8125 -0.40625 -2.3125 -0.734375q-0.671875 -0.46875 -0.671875 -1.28125q0 -0.75 0.578125 -1.25q0.59375 -0.5 1.828125 -0.5q1.171875 0 1.734375 0.375q0.5625 0.375 0.78125 1.125l-1.421875 0.265625q-0.09375 -0.328125 -0.34375 -0.5q-0.25 -0.1875 -0.734375 -0.1875q-0.59375 0 -0.84375 0.171875q-0.171875 0.109375 -0.171875 0.296875q0 0.171875 0.140625 0.28125q0.203125 0.15625 1.40625 0.4375q1.21875 0.265625 1.6875 0.65625q0.484375 0.40625 0.484375 1.125q0 0.78125 -0.65625 1.34375q-0.65625 0.5625 -1.953125 0.5625q-1.15625 0 -1.84375 -0.46875q-0.671875 -0.46875 -0.875 -1.28125z" fill-rule="nonzero"></path><path fill="#000000" fill-opacity="0.0" d="m611.5512 212.4042l54.236206 0" fill-rule="nonzero"></path><path stroke="#000000" stroke-width="1.0" stroke-linejoin="round" stroke-linecap="butt" d="m611.5512 212.4042l54.236206 0" fill-rule="nonzero"></path></g></svg>

